PathFileType	4	(X/Y/Z)	 s03c0401.trc
DataRate	CameraRate	NumFrames	NumMarkers	Units	OrigDataRate	OrigDataStartFrame	OrigNumFrames
200	200	5	52	mm	200	1251	2000
Frame#	Time	racr			lacr			c7			jug			rlel			rdr			llel			ldr			s2			lic			ric			lasi			rasi			rpsi			lpsi			rgt			lgt			rth1			rth2			rth3			rth4			rlfc			rmfc			rsh1			rsh2			rsh3			rsh4			rlmal			rmmal			rcal			rtoe			rmt5			rmt1			lth1			lth2			lth4			lth3			llfc			lmfc			lsh1			lsh2			lsh3			lsh4			llmal			lmmal			lcal			ltoe			lmt1			lmt5			SBIKE			LBIKE			RBIKE			
		X1	Y1	Z1	X2	Y2	Z2	X3	Y3	Z3	X4	Y4	Z4	X5	Y5	Z5	X6	Y6	Z6	X7	Y7	Z7	X8	Y8	Z8	X9	Y9	Z9	X10	Y10	Z10	X11	Y11	Z11	X12	Y12	Z12	X13	Y13	Z13	X14	Y14	Z14	X15	Y15	Z15	X16	Y16	Z16	X17	Y17	Z17	X18	Y18	Z18	X19	Y19	Z19	X20	Y20	Z20	X21	Y21	Z21	X22	Y22	Z22	X23	Y23	Z23	X24	Y24	Z24	X25	Y25	Z25	X26	Y26	Z26	X27	Y27	Z27	X28	Y28	Z28	X29	Y29	Z29	X30	Y30	Z30	X31	Y31	Z31	X32	Y32	Z32	X33	Y33	Z33	X34	Y34	Z34	X35	Y35	Z35	X36	Y36	Z36	X37	Y37	Z37	X38	Y38	Z38	X39	Y39	Z39	X40	Y40	Z40	X41	Y41	Z41	X42	Y42	Z42	X43	Y43	Z43	X44	Y44	Z44	X45	Y45	Z45	X46	Y46	Z46	X47	Y47	Z47	X48	Y48	Z48	X49	Y49	Z49	X50	Y50	Z50	X51	Y51	Z51	X52	Y52	Z52	
1251	6.2550	790.437909	1453.895808	-50.118589	779.617206	1434.136521	-385.535328	738.728351	1537.262465	-218.854254	721.137450	1359.894841	-211.935442	656.554712	1226.137382	106.143043	756.435944	985.272699	5.753896	648.560969	1228.759544	-547.777783	738.709396	977.695750	-448.846755	193.449456	1286.975996	-234.311610	386.375209	1289.984462	-403.066289	346.857424	1331.347914	-43.967886	393.443051	1222.633894	-351.883718	380.271449	1263.163066	-77.226499	217.905416	1340.387126	-196.246243	229.689560	1332.904511	-279.662334	305.958685	1235.576214	-20.153624	298.653683	1165.370641	-405.826364	422.899373	1125.084750	5.560308	506.089997	1092.501743	7.195413	560.823225	1027.648751	7.666437	525.757002	1120.532051	-7.779378	647.024032	931.566850	-15.082793	657.543557	912.233754	-142.709138	523.949483	826.104347	-1.197432	469.220034	758.289905	-21.436911	387.068655	726.952608	-27.056210	489.219779	737.236381	-44.375063	275.959121	653.208660	-53.778509	305.992472	651.108458	-138.825895	201.758529	664.360000	-93.123267	404.825132	431.742284	-120.799224	318.700507	504.716909	-42.632316	340.617567	503.275977	-156.125105	311.326137	1018.079548	-417.276591	334.582858	934.429740	-416.935540	370.774697	935.632733	-413.346494	312.970026	848.901672	-406.713243	335.439109	725.151196	-380.037766	334.229204	707.182564	-257.547194	265.193970	574.827799	-421.680755	262.335413	489.792711	-412.008985	215.566486	412.542876	-415.960582	293.685460	480.708423	-390.583019	171.778483	295.337997	-407.914003	225.191412	315.400158	-311.730624	100.936046	294.489720	-370.251357	344.320745	101.173651	-348.463156	271.168703	165.166260	-318.717215	240.160369	154.102735	-431.091563	-213.837804	946.639190	-231.357130	-6.064472	83.932845	-435.077135	-11.488354	81.425793	-34.678491	
1252	6.2600	790.514221	1452.545542	-48.106420	780.644142	1434.300483	-383.370455	739.262210	1536.151318	-216.646791	721.239078	1358.805322	-210.338607	655.386172	1225.371091	108.225011	755.859574	985.525099	5.621192	650.248386	1229.099270	-546.295213	739.702592	977.478979	-449.356039	192.725825	1289.226885	-233.934347	386.516554	1290.723676	-402.117750	346.240716	1332.216443	-43.471985	392.897233	1223.565323	-351.070665	378.949079	1264.269555	-76.412885	217.703183	1341.789850	-194.882867	229.477790	1334.936772	-279.007790	305.103144	1237.167833	-20.044607	298.346465	1166.667483	-405.728404	422.044918	1126.448330	4.941254	505.482109	1094.186426	5.992579	560.514966	1029.842715	5.580444	524.894203	1122.626203	-8.316378	648.663715	936.175502	-17.346223	660.647534	916.690667	-145.792424	528.948299	827.636897	-3.178732	474.868920	758.881466	-22.720132	393.278958	726.060679	-27.056002	494.935507	738.288973	-46.064354	282.498373	650.165174	-53.565482	311.663621	648.845263	-138.886097	207.322101	659.758944	-92.634021	416.039710	432.229161	-120.984058	328.148867	503.016113	-42.589685	350.129407	502.254443	-156.256808	311.923717	1019.766806	-417.046409	335.341644	936.169554	-416.770239	371.465440	937.540563	-413.157785	314.024944	850.574689	-406.779470	335.917291	726.354432	-381.005074	334.386328	708.765994	-258.505638	263.543975	577.162188	-422.850955	259.381220	492.174783	-413.125344	211.381102	415.591371	-417.055115	290.504688	482.621671	-391.568644	166.025049	299.122738	-408.966946	219.582399	318.020836	-312.579140	95.229932	300.215624	-371.508321	333.543098	100.870104	-348.105447	261.981355	167.165650	-319.245895	230.799646	155.241995	-430.179739	-213.905938	946.603449	-231.548966	-6.070897	83.942446	-435.059659	-11.163799	81.116160	-34.808901	
1253	6.2650	790.886760	1450.668822	-46.205871	781.818827	1434.106787	-381.089167	739.975476	1534.777779	-214.563016	721.373762	1357.502241	-208.681597	654.435065	1224.485718	110.383310	755.654301	985.887566	5.656869	651.819114	1229.328897	-544.914794	740.810405	976.714505	-450.281131	192.169879	1291.421557	-233.325801	386.205364	1291.758769	-401.073791	345.760128	1333.136839	-42.683761	392.037309	1224.781974	-350.307850	377.728891	1265.416646	-75.771802	217.271709	1343.961157	-193.854408	228.539251	1337.262591	-278.491635	304.506167	1238.915993	-19.769458	297.722632	1168.377195	-405.665851	421.094198	1127.888937	4.116173	504.691935	1095.719984	4.474724	560.079969	1031.586560	3.359080	523.975612	1124.525733	-9.078990	649.510029	940.630244	-19.133008	662.716377	920.659277	-149.153447	532.744104	828.102605	-5.236664	479.605924	758.887543	-23.633913	398.542852	724.101062	-27.942678	499.596764	738.329297	-48.028321	288.398414	646.305431	-53.427701	316.602970	645.835467	-138.986773	212.383042	654.145734	-92.066637	427.014504	432.350200	-121.220715	337.372698	500.862523	-42.670938	359.089764	500.798849	-156.345683	312.665947	1021.570412	-416.749012	336.736430	938.150981	-416.505795	372.691607	939.760690	-412.907617	315.993435	852.356831	-406.667363	337.606173	727.878252	-382.174362	334.878521	710.298124	-260.157542	263.010302	579.622592	-423.969794	257.212524	494.767728	-414.072977	207.852591	419.042995	-418.034256	288.170083	484.611898	-392.464969	160.685140	303.571697	-410.100504	214.110532	321.054766	-313.434742	89.913747	306.454288	-372.355421	322.726687	101.401978	-347.732643	252.937255	169.750990	-319.634987	221.701455	157.943535	-430.129693	-213.822645	946.612299	-231.333339	-6.070881	83.975259	-435.055375	-11.175348	81.123445	-34.815399	
1254	6.2700	791.371062	1448.779174	-44.491145	783.063398	1433.552603	-378.876155	740.880195	1533.116781	-212.549650	721.489952	1356.033647	-207.099199	653.174138	1223.668687	112.669886	755.379021	986.120172	5.814515	653.201981	1229.487587	-543.685551	741.706774	976.361017	-450.996435	191.467272	1294.118071	-232.007292	385.515874	1293.209164	-400.063894	345.475888	1334.269502	-41.669052	390.979210	1226.217637	-349.605911	376.607118	1266.797447	-75.222243	216.909922	1346.463128	-192.512100	228.285839	1339.507232	-277.387687	304.298987	1241.098993	-19.403671	296.903101	1170.331420	-405.532303	420.678068	1129.001157	2.230907	503.846707	1097.139454	2.901696	560.285660	1032.583919	-0.012988	523.081373	1126.122693	-10.214941	650.414855	944.298905	-22.786794	663.211943	924.941575	-153.064735	535.578951	827.644398	-7.439615	483.319180	757.476688	-25.324892	402.831895	721.649414	-28.270317	503.210901	737.529208	-50.239002	293.526007	641.885371	-52.939438	320.830007	642.028421	-139.110387	216.751698	647.434313	-91.357273	437.632297	432.298394	-121.327782	346.399620	498.040290	-42.777481	367.598478	498.794029	-156.242820	313.750950	1023.446383	-416.409692	338.774443	940.301172	-416.384930	374.606966	942.284927	-412.623525	318.929615	854.226727	-406.757738	340.596031	729.592820	-383.371642	336.781477	711.674152	-261.630580	263.432056	582.199804	-425.060664	255.947123	497.573556	-414.992395	205.042754	422.873962	-418.845553	286.640732	486.802957	-393.371243	155.493388	308.733989	-410.837403	208.799037	324.495599	-314.294381	84.935030	313.575474	-372.783432	312.179461	102.416046	-347.610973	244.220805	172.710975	-320.234640	212.840936	162.297663	-431.314022	-213.965759	946.746587	-231.150673	-6.089428	84.027646	-435.044383	-11.203205	81.134811	-34.808181	
1255	6.2750	791.970228	1446.281232	-42.920021	784.345592	1432.659082	-376.638538	741.919837	1531.179852	-210.627739	721.582630	1354.279978	-205.729618	652.246903	1222.640993	114.819647	754.959579	986.265613	6.398097	654.401306	1229.591587	-542.654946	742.373035	976.215938	-451.475454	190.875134	1297.144130	-230.205033	384.423795	1294.902869	-399.111074	345.242827	1335.336643	-40.503824	389.618477	1227.930609	-349.186557	375.576053	1268.339752	-74.606701	216.681740	1349.389145	-190.881189	227.724279	1342.001644	-275.620870	304.578706	1243.622168	-19.004770	295.810531	1172.593939	-405.289084	419.817429	1130.412249	1.216050	502.940639	1098.438569	1.382810	559.176815	1034.165553	-1.260748	522.028194	1127.429628	-11.560878	650.853524	947.166507	-27.746825	662.522617	927.685380	-156.657698	537.415938	826.276336	-9.743415	485.683244	755.396280	-27.164521	406.131676	718.250198	-29.214301	506.340202	735.768935	-52.518245	298.162074	636.640381	-52.675877	324.345628	637.315421	-139.239122	220.260627	639.707609	-90.835559	448.299950	431.796890	-121.102413	354.809484	494.663631	-42.700637	376.530619	496.190426	-156.858797	315.143114	1025.418525	-416.114056	341.442319	942.594260	-416.306855	377.205983	945.096059	-412.172111	322.784349	856.198158	-407.047125	344.786770	731.503256	-384.834337	339.355191	713.392352	-262.988742	264.913456	585.128325	-426.195741	255.396389	500.759823	-415.770736	202.861101	427.250523	-419.593827	285.888345	489.371222	-394.261938	150.700856	314.528827	-411.282712	203.671142	328.336985	-315.155010	80.527653	321.471703	-372.783723	301.671312	104.355114	-347.681351	235.821723	176.428421	-320.733499	203.963343	166.617199	-431.273129	-213.970219	946.775953	-231.107298	-6.087592	84.109187	-435.030059	-11.204643	81.144616	-34.794941	
